<?xml version="1.0" encoding="iso-8859-1"?>
<!-- Generator: Adobe Illustrator 19.0.0, SVG Export Plug-In . SVG Version: 6.00 Build 0)  -->
<svg version="1.1" id="Layer_1" xmlns="http://www.w3.org/2000/svg" xmlns:xlink="http://www.w3.org/1999/xlink" x="0px" y="0px"
	 viewBox="0 0 512 512" style="enable-background:new 0 0 512 512;" xml:space="preserve">
<path style="fill:#FFE477;" d="M345.043,55.652v83.478H166.957V55.652c0-9.238,7.456-16.696,16.696-16.696h144.696
	C337.587,38.957,345.043,46.414,345.043,55.652z"/>
<path style="fill:#FFB655;" d="M345.043,55.652v83.478H256V38.957h72.348C337.587,38.957,345.043,46.414,345.043,55.652z"/>
<rect x="166.957" y="72.348" style="fill:#D6A246;" width="178.087" height="33.391"/>
<rect x="256" y="72.348" style="fill:#CE8A42;" width="89.043" height="33.391"/>
<path style="fill:#FFE477;" d="M378.435,122.435v83.478h-244.87v-83.478c0-9.238,7.456-16.696,16.696-16.696h211.478
	C370.978,105.739,378.435,113.197,378.435,122.435z"/>
<path style="fill:#FFB655;" d="M378.435,122.435v83.478H256V105.739h105.739C370.978,105.739,378.435,113.197,378.435,122.435z"/>
<path style="fill:#FFE477;" d="M411.826,189.217v83.478H100.174v-83.478c0-9.238,7.456-16.696,16.696-16.696H395.13
	C404.37,172.522,411.826,179.979,411.826,189.217z"/>
<path style="fill:#FFB655;" d="M411.826,189.217v83.478H256V172.522h139.13C404.37,172.522,411.826,179.979,411.826,189.217z"/>
<path style="fill:#FFE477;" d="M445.217,256v83.478H66.783V256c0-9.238,7.456-16.696,16.696-16.696h345.043
	C437.761,239.304,445.217,246.762,445.217,256z"/>
<path style="fill:#FFB655;" d="M445.217,256v83.478H256V239.304h172.522C437.761,239.304,445.217,246.762,445.217,256z"/>
<path style="fill:#FFE477;" d="M478.609,322.783v83.478H33.391v-83.478c0-9.238,7.456-16.696,16.696-16.696h411.826
	C471.152,306.087,478.609,313.544,478.609,322.783z"/>
<path style="fill:#FFB655;" d="M478.609,322.783v83.478H256V306.087h205.913C471.152,306.087,478.609,313.544,478.609,322.783z"/>
<g>
	<rect x="33.391" y="339.478" style="fill:#D6A246;" width="445.217" height="33.391"/>
	<rect x="66.783" y="272.696" style="fill:#D6A246;" width="378.435" height="33.391"/>
	<rect x="100.174" y="205.913" style="fill:#D6A246;" width="311.652" height="33.391"/>
</g>
<rect x="256" y="139.13" style="fill:#895B41;" width="122.435" height="33.391"/>
<g>
	<rect x="256" y="205.913" style="fill:#CE8A42;" width="155.826" height="33.391"/>
	<rect x="256" y="272.696" style="fill:#CE8A42;" width="189.217" height="33.391"/>
	<rect x="256" y="339.478" style="fill:#CE8A42;" width="222.609" height="33.391"/>
</g>
<rect x="133.565" y="139.13" style="fill:#D6A246;" width="244.87" height="33.391"/>
<rect x="256" y="139.13" style="fill:#CE8A42;" width="122.435" height="33.391"/>
<path style="fill:#FFE477;" d="M495.304,473.043H16.696C7.475,473.043,0,465.568,0,456.348v-66.783
	c0-9.22,7.475-16.696,16.696-16.696h478.609c9.22,0,16.696,7.475,16.696,16.696v66.783C512,465.568,504.525,473.043,495.304,473.043
	z"/>
<path style="fill:#FFB655;" d="M495.304,372.87H256v100.174h239.304c9.22,0,16.696-7.475,16.696-16.696v-66.783
	C512,380.345,504.525,372.87,495.304,372.87z"/>
<path style="fill:#816952;" d="M256,139.13c-9.217,0-16.696-7.473-16.696-16.696V89.043c0-9.223,7.479-16.696,16.696-16.696
	s16.696,7.473,16.696,16.696v33.391C272.696,131.657,265.217,139.13,256,139.13z"/>
<path style="fill:#77604B;" d="M272.696,122.435V89.043c0-9.223-7.479-16.696-16.696-16.696v66.783
	C265.217,139.13,272.696,131.657,272.696,122.435z"/>
<polygon style="fill:#F7E4B3;" points="345.043,473.043 166.957,473.043 211.478,105.739 300.522,105.739 "/>
<polygon style="fill:#E6C892;" points="256,473.043 345.043,473.043 300.522,105.739 256,105.739 "/>
<g>
</g>
<g>
</g>
<g>
</g>
<g>
</g>
<g>
</g>
<g>
</g>
<g>
</g>
<g>
</g>
<g>
</g>
<g>
</g>
<g>
</g>
<g>
</g>
<g>
</g>
<g>
</g>
<g>
</g>
</svg>
